<svg xmlns="http://www.w3.org/2000/svg" width="82" height="90" viewBox="0 0 82 90"><g><g><path fill="#004cff" d="M81.43 88.242c0 .97-.788 1.758-1.759 1.758H2.328A1.757 1.757 0 0 1 .57 88.242c0-10.851 7.05-21.078 16.766-24.317l8.354-2.785 2.998-5.995a19.041 19.041 0 0 1-3.722-5.399H23.42a5.28 5.28 0 0 1-5.273-5.274v-2.06a5.282 5.282 0 0 1-3.516-4.971V26.367c0-14.573 11.791-26.368 26.367-26.368 14.54 0 26.367 11.829 26.367 26.368V37.44a5.28 5.28 0 0 1-5.273 5.273h-3.198l-.375 2.242c-.633 3.796-2.509 7.435-5.21 10.185l2.998 6 8.356 2.784c9.714 3.239 16.765 13.466 16.765 24.317zM63.85 28.125h-3.566l-.009.302c-.12 3.627-.418 7.31-.864 10.772h2.682a1.76 1.76 0 0 0 1.758-1.758zM19.906 39.199h2.684a114.64 114.64 0 0 1-.854-10.501v-.002-.019l-.02-.552h-3.567v9.316c0 .97.788 1.758 1.757 1.758zm3.834 7.03c-.102-.42-.19-.845-.26-1.272l-.374-2.243h-1.442v1.758c0 .97.789 1.758 1.758 1.758zM39.426 7.032h3.147c9.728 0 17.633 7.87 17.76 17.578h3.45C62.884 12.827 53.009 3.515 41 3.515c-12.062 0-21.894 9.313-22.784 21.094h3.451C21.793 14.9 29.698 7.03 39.426 7.03zm-14.17 16.331a15.903 15.903 0 0 1 12.227-5.784c.467 0 .914.185 1.244.514a28.243 28.243 0 0 0 15.88 7.94l2.199.315v-.017c.009-.438.014-.92.014-1.473.004-7.868-6.37-14.31-14.247-14.31h-3.147c-7.382 0-13.433 5.658-14.17 12.815zM32.51 46.23a5.276 5.276 0 0 1 4.973-3.516H41a5.279 5.279 0 0 1 5.274 5.274 5.272 5.272 0 0 1-5.274 5.273h-3.516a5.282 5.282 0 0 1-4.97-3.515h-3.584c2.033 3.406 5.181 5.782 8.616 6.64 2.262.565 4.647.565 6.91 0 5.5-1.375 9.667-6.424 10.598-12.008.324-1.958.45-2.659.612-3.748v-.004c.506-3.388.86-7.072 1.033-10.743l-2.588-.37a31.796 31.796 0 0 1-17.32-8.4 12.372 12.372 0 0 0-9.15 4.902l-2.366 3.155c.223 5.52 1.23 14.133 2.11 17.06zm8.258 17.146l3.106-3.285c-.952.156-1.913.237-2.875.237-1.228 0-2.458-.13-3.663-.384zm-9.834-4.862L28.84 62.7a67.07 67.07 0 0 0 3.936 9.126l5.575-5.896zm12.32 7.349l5.968 5.967a66.887 66.887 0 0 0 3.936-9.129l-2.39-4.783zm-5.77-16.117h3.515a1.758 1.758 0 0 0 0-3.516h-3.516a1.758 1.758 0 0 0 0 3.516zm.35 36.738l-2.163-3.471a70.547 70.547 0 0 1-4.811-7.348l-.01-.018a70.459 70.459 0 0 1-5.004-10.853l-7.4 2.466C10.648 69.86 4.853 77.776 4.157 86.484zm5.635-5.52a66.81 66.81 0 0 0 3.975-5.94l-6.606-6.606-6.27 6.63a67.074 67.074 0 0 0 3.962 5.917c.03.04.058.082.085.125L41 84.917c2.506-4.019 2.384-3.838 2.47-3.953zm.696 5.52h33.678C77.147 77.776 71.35 69.86 63.55 67.26l-7.398-2.466a70.434 70.434 0 0 1-9.826 18.219z"/></g></g></svg>