<svg xmlns="http://www.w3.org/2000/svg" width="46" height="18" viewBox="0 0 46 18"><g><g><g><path fill="#ff6c6c" d="M11.462 9.701H3.045s.141 3.016 3.156 3.016c2.385.07 2.807-1.543 2.807-1.543h2.174s-.21 3.016-4.98 3.016C.66 14.19.94 9.42.94 9.42c-.07-1.052.14-5.19 5.401-5.19 5.822 0 5.19 5.471 5.12 5.471zM9.288 8.298s0-2.665-3.016-2.665-3.157 2.665-3.157 2.665z"/></g><g><path fill="#ee3b3f" d="M6.272 4.23c5.822 0 5.19 5.471 5.19 5.471H3.045s.141 3.016 3.156 3.016c2.385.07 2.807-1.543 2.807-1.543h2.174s-.21 3.016-4.98 3.016C.66 14.19.94 8.79.94 8.79m8.347-.492s0-2.665-3.016-2.665-3.157 2.665-3.157 2.665z"/></g><g><path fill="#1992dd" d="M22.544 9.28c-.07 3.156-2.314 4.91-5.12 4.91s-3.787-1.543-3.787-1.543l-.07 1.262h-2.035c.07-.701.07-2.174.07-2.174L11.532.582h2.385v5.261S14.9 4.3 17.565 4.3c2.594 0 4.98 1.824 4.98 4.98zm-2.314.07s.07-3.647-3.297-3.577c-3.437.07-3.296 3.507-3.296 3.507s0 3.578 3.296 3.507c3.297-.07 3.297-3.437 3.297-3.437z"/></g><g><path fill="#0468b2" d="M22.474 9.28c-.07 3.156-2.315 4.91-5.12 4.91s-3.787-1.543-3.787-1.543l-.071 1.262h-2.034c.07-.701.07-2.174.07-2.174V2.757L13.917.582v5.261S14.9 4.3 17.565 4.3c2.594 0 4.98 1.824 4.91 4.98zm-2.244.07s.07-3.647-3.297-3.577c-3.437.07-3.296 3.507-3.296 3.507s0 3.578 3.296 3.507c3.297-.07 3.297-3.437 3.297-3.437z"/></g><g><path fill="#ffce00" d="M32.224 13.91h-1.963l-.071-1.334c-.841 1.053-1.964 1.614-3.928 1.614s-4.419-.842-3.998-3.647c.35-2.385 4.208-2.526 5.33-2.526.632 0 2.456-.07 2.456-.07 0-1.332-.35-2.384-2.525-2.455-2.315-.07-2.455 1.333-2.455 1.333h-2.245c.491-2.806 4.84-2.736 4.84-2.736 4.559.211 4.42 2.876 4.49 3.928.07.912 0 2.175 0 3.648 0 1.473.07 2.174.07 2.244zM29.98 9.49h-2.385s-3.367-.14-3.227 1.684c.14 1.684 2.245 1.684 2.245 1.684 3.857.07 3.437-3.368 3.367-3.368z"/></g><g><path fill="#f7ab1b" d="M27.735 4.23c4.559.21 4.35 2.876 4.42 3.928.07.912 0 2.174 0 3.647 0 1.473.07 2.175.07 2.175H30.26l-.071-1.333c-.841 1.052-1.964 1.613-3.928 1.613s-4.419-.841-3.998-3.647c.35-2.385 4.208-2.525 5.33-2.525.632 0 2.456-.07 2.456-.07 0-1.333-.35-2.385-2.525-2.455-2.315-.07-2.455 1.332-2.455 1.332h-2.034M29.98 9.49h-2.385s-3.367-.14-3.227 1.684c.14 1.684 2.245 1.684 2.245 1.684 3.857.07 3.437-3.368 3.367-3.368z"/></g><g><path fill="#85dd52" d="M31.032 4.79h2.454l3.578 7.155 3.577-7.154h2.244l-6.522 12.625h-2.385l1.893-3.507z"/></g><g><g><path fill="#6bb745" d="M32.013 6.615l1.473-1.824 3.578 7.084 3.577-7.084h2.244l-6.522 12.625h-2.385l1.893-3.577z"/></g><g><path fill="#6bb745" d="M43.657 5.142v-.28h-.07V4.79h.07v-.14h.14v.14h.141v.07h-.14v.28c0 .07 0 .07.07.07h.07v.07h-.14c-.07.071-.14 0-.14-.14z"/></g><g><path fill="#6bb745" d="M44.148 4.79h.14v.071c.07-.07.07-.07.21-.07.071 0 .141 0 .211.07.07-.07.14-.07.21-.07.14 0 .211.07.211.21v.351h-.14v-.28c0-.07-.07-.14-.14-.14a.15.15 0 0 0-.14.14v.28h-.14v-.28c0-.07-.072-.14-.142-.14-.07 0-.14.07-.14.14v.28h-.14v-.561z"/></g></g><g><path fill="#c60c1e" d="M9.077 7.176c.281.56.281 1.122.281 1.122H3.115s0-1.543 1.403-2.245c-1.403.211-2.595.912-3.507 1.964C.87 8.58.87 9.14.87 9.42c0 0-.28 4.77 5.26 4.77 4.07 0 4.84-2.175 4.98-2.806v-.21H8.938s-.42 1.613-2.806 1.543c-2.945 0-3.086-3.016-3.086-3.016h7.786C10.481 9 9.85 7.807 9.077 7.176z"/></g><g><path fill="#064c91" d="M21.983 11.525c-.07-1.754-1.052-3.367-2.384-4.35.631.983.56 2.245.56 2.245s.071 3.438-3.295 3.438c-3.297.07-3.297-3.508-3.297-3.508s-.071-2.315 1.753-3.156c-1.613.21-2.946 1.122-3.858 2.385v3.296s0 1.473-.07 2.175h2.034l.07-1.263s.983 1.543 3.788 1.543c2.104-.14 3.928-1.052 4.699-2.805z"/></g><g><g><path fill="#f48d1c" d="M32.154 13.98H30.19l-.07-1.333c-.842 1.052-1.964 1.613-3.928 1.613s-4.419-.841-3.998-3.647c.35-2.385 4.209-2.525 5.331-2.525.631 0 2.455-.07 2.455-.07 0-.632 0-1.123-.35-1.544 1.051.421 1.893 1.193 2.524 2.105v3.086c0 1.473.07 2.174 0 2.315zM29.98 9.49h-2.385s-3.367-.14-3.227 1.684c.14 1.684 2.245 1.684 2.245 1.684 3.857.07 3.437-3.368 3.367-3.368z"/></g><g><path fill="#f48d1c" d="M24.017 6.895h1.123s.14-.42.49-.771c-.63.14-1.192.771-1.613.771z"/></g></g><g><path fill="#4a9e19" d="M36.363 17.416l4.56-8.837a9.395 9.395 0 0 0-1.404-1.473l-2.455 4.699-2.805-5.4c-.632.28-1.193.7-1.684 1.192l3.296 6.312-1.893 3.507z"/></g></g></g></svg>