<svg xmlns="http://www.w3.org/2000/svg" width="247" height="129" viewBox="0 0 247 129"><g><g><g><path fill="#004cff" d="M58.893 42.413s-9.613 6.765-9.968 24.39C48.66 79.828 55.3 86.24 58.785 88.7 53.662 43.155 98.4-16.045 141.045 9.735c22.548 13.634 14.31 39.76 1.106 35.36-2.141-.715-3.653-1.573-4.65-2.28L135.125 59.1l9.651-5.961c-.893 3.987-.875 6.894.48 10.762-3.142-1.582-7.419-2.247-10.725-.74l-2.57 17.618c1.26 1.875 2.934 3.859 4.508 4.134 3.083.54 4.547-2.465 6.782-8.476 2.235-6.01 3.236-9.092 5.24-9.862 2.003-.771 5.085-.54 5.085-.54s-3.699 7.551-3.699 13.176 1.052 7.378 1.052 7.378-6.291.636-12.456 1.098c-6.164.463-20.96 3.16-20.96 3.16s.772-1.542 2.93-5.78c.352-.694.705-1.382 1.046-2.044l6.264-42.61c-.12-1.117-.272-2.053-.458-2.497-.667-1.59-3.243-2.322-3.243-2.322s.921-2.289.858-2.417l3.99-.57.02-.128 10.31-1.522-1.478 10.136c12.005-3.119 11.944-20.134.536-27.204-35.085-21.743-78.99 37.532-70.186 81.215.319 1.21.694 2.366 1.115 3.21 1.426 2.85 2.671 4.629 2.671 4.629-17.452 3.948-33.357-15.188-31.655-29.763-3.605 4.87-7.91 11.625-8.713 22.074-.95 12.34 5.83 14.374 5.83 14.374l-2.712.271s-13.779.123-14.246-7.815c-4.24 7.154-16.733 7.001-16.733 7.001s9.39-3.13 10.542-19.767C15.347 72.78 17.123 57.045 3.66 45.832c0 0 8.565 1.483 15.318-2.47 6.754-3.953 6.754-4.612 10.213-5.107 3.46-.494 5.106 2.306 5.106 2.306s-7.742-1.482-8.565 15.814c-.57 11.984-.905 25.153-2.316 34.743 3.818-8.781 10.225-19.185 13.258-25.154C41.012 57.42 40.58 53.038 39.6 51.4c-.983-1.637-2.84-2.292-2.512-3.166.263-.703 16.722-4.66 21.805-5.821zM19.83 67.728l1.263-1.446-1.447-1.264-1.262 1.447zm156.71 19.547c-.859-8.504 3.321-26.242 14.058-25.428-4.391 4.743-7.74 18.768-6.804 25.672 2.489 18.356 24.677 24.41 39.693 9.394-16.244 20.741-44.706 12.526-46.947-9.638zm-7.276-27.282c2.476-4.143 6.612-5.93 12.214-3.732l-4.002 6.791c-4.79-3.243-7.843.646-9.363 4.861-.984 6.225-2.45 12.44 6.488 13.384.18.019.554-.134.553.054l-.002 2.425c-7.926.522-15.024 1.492-22.837 2.852 0 0 1.279-2.505 2.608-6.21.737-2.056 1.71-5.92 2.43-8.953l4.72-31.824c-.134-2.276-.36-4.913-.716-5.76-.668-1.59-3.243-2.322-3.243-2.322s.92-2.29.858-2.416l4.76-.68.002-.015 7.254-1.072.05-.128 20.524-2.395c.195-.023-6.67 13.17-7.24 13.626-.571.456-2.053-.057-3.364-2.737-1.312-2.68-.685-4.96-1.995-6.442-1.312-1.482-2.624-1.596-4.049-.456-.404.323-.916 1.107-1.445 2.067zm76.254-43.703s-2.834 2.184-3.58 5.774c-.745 3.59 0 14.515 0 14.515s-4.773.47-6.563-2.966c-1.79-3.433-2.088-9.208-4.475-11.393-2.387-2.184-6.562-1.404-6.264 6.087.565 14.186 27.57 36.824 21.118 59.492-4.957 17.42-22.13 24.625-38.42 23.23 13.338-2.4 24.574-9.38 28.169-23.73 5.533-22.082-20.736-39.604-19.667-57.119.354-5.807 2.061-9.014 4.136-10.725 4.202-3.47 12.02-2.278 15.674 1.122 1.374-4.785 9.873-4.287 9.873-4.287zM200.84 74.842c1.029 1.255 2.188 2.298 3.296 2.492 3.083.539 4.547-2.466 6.781-8.476 2.236-6.01 3.237-9.092 5.24-9.863 2.003-.77 5.086-.54 5.086-.54s-3.698 7.552-3.698 13.176c0 5.625 1.05 7.38 1.05 7.38s-6.291.634-12.455 1.097c-6.165.462-20.959 3.159-20.959 3.159s.771-1.541 2.928-5.779a632.995 632.995 0 0 1 3.072-5.949l5.915-40.232a8.466 8.466 0 0 0-.42-1.78c-.435-1.195-1.208-1.93-1.983-3.088l-.027-1.624c.036.072 1.685-.138 3.441-.383l.007-.052 10.312-1.522-.01.06c2.446-.413 4.862-.83 4.886-.865l.114 1.771s-2.746 0-4.462 2.976c-.489.847-1.065 2.19-1.65 3.742zm12.462-52.79zM83.441 39.365l4.535-.648.007-.042 10.31-1.522-3.655 25.338c4.367 2.412 8.308 6.281 10.686 11.4l5.702-38.787 10.312-1.523-8.343 57.835-10.45 1.384 1.757-11.958c-.393-2.173-1.026-4.368-2.04-6.096-1.847-3.152-4.924-5.539-8.385-6.984L89.95 94.987l-6.348.841-.007.038-9.617 1.477.322-1.566s3.077-.446 4.23-3.376c.652-1.653 2.19-7.684 3.411-12.635l1.979-13.463c-5.651.732-10.243 4.414-10.076 11.812-2.948-5.584-1.867-10.874-.004-13.637 2.374-3.521 6.496-5.063 11.063-4.861l1.577-10.73c-.137-2.006-.348-4.056-.654-4.785-.667-1.59-3.243-2.321-3.243-2.321s.922-2.29.858-2.417zM22.35 48.096c-1.312 2.447-5.376 3.608-7.983 3.271 2.972 3.468 4.46 7.94 4.973 12.432 0 0 1.767-12.366 3.01-15.703z"/></g><g><path fill="#fff" d="M170.12 105.871c-.252 1.033-.732 1.886-1.436 2.562-.706.676-1.565 1.083-2.583 1.223-.88.122-1.55-.097-2.014-.657-.487-.601-.582-1.455-.286-2.562a35 35 0 0 1 .242-.918c.072-.248.171-.38.295-.397.125-.017.477-.078 1.06-.18.582-.103.935-.163 1.059-.18.123-.017.15.126.074.43l-.21.864c-.208.844-.07 1.233.413 1.167.385-.053.66-.368.826-.947l.278-.99c.084-.296-.127-.702-.635-1.223-.85-.88-1.315-1.377-1.396-1.49-.479-.638-.645-1.255-.498-1.852l.367-1.497c.262-1.067.737-1.954 1.426-2.662.74-.77 1.659-1.243 2.756-1.417.895-.134 1.537.06 1.923.585.358.495.423 1.206.195 2.132l-.426 1.742c-.043.176-.135.28-.275.31-.368.085-1.044.179-2.026.28-.162.022-.22-.054-.178-.23.054-.269.181-.74.383-1.413.073-.249.086-.486.039-.712-.047-.226-.157-.327-.33-.303-.483.067-.82.488-1.01 1.262l-.225.915c-.09.364.113.834.607 1.413l1.402 1.608c.468.684.629 1.325.482 1.923zm-18.153 5.377c.026.19-.03.3-.17.33l-2.558.352c-.099.014-.153-.057-.162-.215-.03-.516-.066-1.735-.113-3.657-.004-.181-.017-.277-.039-.284-.01.001-.049.103-.11.304-.255.846-.571 2.11-.945 3.786-.043.176-.134.273-.27.292l-1.83.252c-.16.022-.214-.077-.159-.3l3.353-13.675c.04-.163.122-.254.245-.271.5-.08 1.169-.172 2.01-.278.12-.005.162.069.125.221-.581 2.133-.915 3.385-.994 3.759-.02.082-.01.12.026.116.041-.017.084-.074.133-.172.367-.761 1.003-2.042 1.913-3.848.09-.175.192-.268.303-.283a20.45 20.45 0 0 0 1.209-.167l.967-.133c.174-.024.24.046.2.21a.407.407 0 0 1-.043.108c-.385.54-1.145 1.685-2.282 3.438-1.16 1.804-1.736 2.736-1.729 2.803.208 1.888.516 4.322.92 7.312zm-17.515 2.704c-.005.068-.069.111-.193.128l-.967.134a56.63 56.63 0 0 0-1.224.15c-.11.016-.161-.345-.147-1.084.017-.557.045-1.036.084-1.44.008-.08-.05-.11-.175-.095l-.725.1a.254.254 0 0 0-.198.15 85.688 85.688 0 0 1-1.053 2.537c-.077.115-.145.175-.208.185l-2.288.315c-.198.028-.261-.033-.19-.178 1.01-2.458 2.022-4.92 3.034-7.39 1.967-4.749 3.033-7.14 3.197-7.174a20.987 20.987 0 0 1 2.008-.277c.146-.009.035 2.251-.332 6.78-.201 2.385-.408 4.772-.623 7.159zm-2.04-4.43c.142-1.31.187-1.963.138-1.956-.062.01-.207.306-.435.893l-.43 1.165c-.02.036.032.054.158.054s.246-.014.36-.041c.129-.03.196-.067.209-.114zm-16.423 6.822c-.035.14-.152.23-.353.27-1.738.318-3.298.522-4.68.611-.132.007-.173-.096-.122-.306l3.37-13.745c.032-.128.116-.203.253-.221.958-.143 2.499-.351 4.627-.62.198-.028.28.03.244.17l-.232.949c-.147.553-.239.903-.276 1.05-.034.147-.12.23-.258.249-.49.066-1.2.164-2.123.292-.183.026-.292.102-.324.232-.015.058-.122.476-.325 1.251a31.413 31.413 0 0 0-.362 1.479c-.032.13.024.194.164.198.251 0 .82-.073 1.713-.22.157-.02.227.038.206.177-.04.21-.143.604-.309 1.182a68.96 68.96 0 0 0-.325 1.184c-.04.164-.129.255-.266.274 0 0-.558.078-1.673.23-.125.019-.22.117-.287.293-.182.496-.422 1.42-.717 2.774-.037.15.053.222.272.214l2.046-.282c.197-.026.277.036.24.189-.232.95-.4 1.658-.503 2.126zm-16.273 2.108c-.001.249-.097.392-.285.43-.241.056-.965.15-2.17.282-.139.019-.18-.128-.127-.442.133-.789.32-1.67.558-2.644.435-1.772.324-2.612-.333-2.522a.388.388 0 0 0-.224.031c-.096.048-.17.183-.225.405a618.418 618.418 0 0 1-1.21 4.86c-.075.305-.181.473-.321.503-.687.163-1.328.262-1.924.3-.146.008-.178-.151-.098-.48l3.318-13.533c.052-.21.188-.332.416-.363.684-.095 1.622-.229 2.81-.404.774-.107 1.391-.044 1.853.187.501.26.686.666.549 1.23l-.868 3.466c-.141.575-.441 1.09-.902 1.55-.32.327-.648.565-.983.713-.108.05-.167.092-.175.127-.005.023.037.045.127.067.218.038.431.15.637.338.464.397.47 1.524.016 3.375-.29 1.186-.436 2.024-.439 2.524zm-.046-10.366c.189-.774.008-1.107-.546-.996a2.07 2.07 0 0 1-.289.073c-.111.015-.191.125-.24.323l-.756 3.082c-.08.326-.035.484.136.472a.771.771 0 0 0 .223-.03c.274-.039.49-.193.654-.465.24-.396.514-1.215.818-2.459zm-13.871-.944a70.434 70.434 0 0 1-.46 1.797c-.024.106-.14.184-.344.235-.558.077-1.322.188-2.292.333a.347.347 0 0 0-.283.277l-.76 3.097c-.043.177-.003.255.122.239.269-.026.898-.125 1.887-.295.174-.024.248.04.222.19-.066.463-.254 1.232-.564 2.307-.03.116-.106.183-.23.2-.45.052-1.091.14-1.919.265a.36.36 0 0 0-.276.26c-.126.414-.332 1.23-.618 2.448a868.67 868.67 0 0 1-.661 2.693c-.037.152-.143.246-.317.281-.874.2-1.662.315-2.37.344-.159.01-.22-.06-.181-.213l3.348-13.656c.043-.175.164-.278.363-.305.572-.09 1.472-.214 2.696-.372l2.415-.316c.185-.026.259.038.222.19z"/></g><g><path fill="#fff" d="M71.508 112.318l-1.22 2.897L.467 123.6s70.886-11.586 71.04-11.28zm.914-4.42l-1.22 2.896-69.818 8.384s70.886-11.585 71.038-11.28zm-2.135 9.146l-1.22 2.897-69.817 8.383s70.885-11.585 71.037-11.28z"/></g><g><path fill="#fff" d="M20.338 14.805l-2.736 18.443c-.627 1.56-3.695 1.512-3.615-.528l2.565-17.294c-2.971.004-5.771-1.303-8.006-4.89l3.101-1.93c3.214 5.164 8.935 2.696 13.623-.223a92.708 92.708 0 0 0 3.591-2.384c.233-.16.456-.313 1.09-.744 1.98-1.343 4.033-2.634 6.114-3.6C38.26.634 40.511-.04 42.795-.084c6.09-.117 8.9 3.857 10.172 7.025-1.107.476-2.142 1.257-3.05 2.28-.712-2.277-2.54-5.748-7.066-5.663-1.698.033-3.471.58-5.257 1.41-1.897.88-3.779 2.066-5.6 3.3L30.931 9c-1.152.793-2.438 1.677-3.733 2.483-2.167 1.35-4.515 2.605-6.861 3.323zm41.135-2.183c.927 2.049 1.307 4.725.925 7.542l-.002.002c-.384 2.823-1.47 5.303-2.912 7.032-1.634 1.957-3.753 3.017-5.968 2.715-2.22-.301-3.98-1.892-5.032-4.218-.927-2.05-1.308-4.726-.925-7.543l.008-.057v-.001c.391-2.798 1.472-5.258 2.905-6.975 1.634-1.957 3.753-3.016 5.967-2.716h.001c2.22.303 3.982 1.893 5.033 4.22zm-33.361 4.474l-1.621 8.386 5.678-7.715 1.755-2.219 1.295 2.52 2.973 5.789L42.404 9.63c1.191-2.569 4.063-1.06 3.5 1.028L41.633 25.09c-.633 2.138-1.097 6.35-3.72 6.35l-4.642-9.196c-3.906 4.939-5.633 9.361-11.577 10.881l2.818-16.616c1.29-3.32 4.088-1.426 3.6.586z"/></g></g></g></svg>