<svg xmlns="http://www.w3.org/2000/svg" width="44" height="28" viewBox="0 0 44 28"><g><g><g><g><path fill="#ffb600" d="M44.13 14c0 7.306-5.902 13.278-13.279 13.278-7.306 0-13.278-5.972-13.278-13.279 0-7.307 5.901-13.278 13.209-13.278 7.446 0 13.348 5.971 13.348 13.278z"/></g><g><path fill="#f7981d" d="M30.851.72c7.307 0 13.28 5.972 13.28 13.28 0 7.306-5.903 13.278-13.28 13.278-7.306 0-13.278-5.972-13.278-13.279"/></g><g><path fill="#ff8500" d="M30.851.72c7.307 0 13.28 5.972 13.28 13.28 0 7.306-5.903 13.278-13.28 13.278"/></g><g><path fill="#ff5050" d="M13.006.72C5.77.792-.132 6.693-.132 14c0 7.306 5.902 13.278 13.28 13.278 3.442 0 6.533-1.335 8.921-3.442.493-.422.914-.914 1.336-1.406h-2.74a16.085 16.085 0 0 1-.984-1.335h4.707c.281-.421.562-.913.772-1.405h-6.252a8.41 8.41 0 0 1-.562-1.405h7.307c.421-1.335.702-2.74.702-4.215 0-.984-.14-1.897-.28-2.81h-8.15c.07-.493.21-.914.35-1.406h7.308a8.416 8.416 0 0 0-.562-1.405h-6.183c.21-.492.492-.913.772-1.405h4.707a6.661 6.661 0 0 0-1.053-1.405h-2.6c.422-.492.844-.913 1.335-1.335C19.681 2.126 16.52.862 13.077.862c0-.141 0-.141-.07-.141z"/></g><g><path fill="#e52836" d="M-.132 14c0 7.306 5.902 13.278 13.28 13.278 3.442 0 6.533-1.335 8.921-3.442.493-.422.914-.914 1.336-1.406h-2.74a16.085 16.085 0 0 1-.984-1.335h4.707c.281-.421.562-.913.772-1.405h-6.252a8.41 8.41 0 0 1-.562-1.405h7.307c.421-1.335.702-2.74.702-4.215 0-.984-.14-1.897-.28-2.81h-8.15c.07-.493.21-.914.35-1.406h7.308a8.416 8.416 0 0 0-.562-1.405h-6.183c.21-.492.492-.913.772-1.405h4.707a6.661 6.661 0 0 0-1.053-1.405h-2.6c.422-.492.844-.913 1.335-1.335C19.681 2.126 16.52.862 13.077.862h-.07"/></g><g><path fill="#cb2026" d="M13.147 27.278c3.443 0 6.534-1.335 8.922-3.442.493-.422.914-.914 1.336-1.406h-2.74a16.085 16.085 0 0 1-.984-1.335h4.707c.281-.421.562-.913.772-1.405h-6.252a8.41 8.41 0 0 1-.562-1.405h7.307c.421-1.335.702-2.74.702-4.215 0-.984-.14-1.897-.28-2.81h-8.15c.07-.493.21-.914.35-1.406h7.308a8.416 8.416 0 0 0-.562-1.405h-6.183c.21-.492.492-.913.772-1.405h4.707a6.661 6.661 0 0 0-1.053-1.405h-2.6c.422-.492.844-.913 1.335-1.335C19.681 2.126 16.52.862 13.077.862h-.07"/></g><g><g><path fill="#fff" d="M17.854 17.371l.211-1.194c-.07 0-.21.07-.351.07-.492 0-.563-.28-.492-.42l.422-2.46h.773l.21-1.335h-.703l.141-.843H16.66s-.843 4.637-.843 5.2c0 .842.491 1.193 1.123 1.193.422 0 .774-.14.914-.21z"/></g><g><path fill="#fff" d="M20.876 11.962c1.545 0 2.037 1.124 2.037 2.037 0 .352-.212 1.265-.212 1.265h-2.88s-.28 1.124 1.265 1.124c.703 0 1.476-.351 1.476-.351l-.282 1.334s-.422.211-1.475.211c-1.124 0-2.46-.491-2.46-2.459 0-1.756 1.054-3.302 2.53-3.161zm-.984 2.108h1.545c0-.07.14-.984-.632-.984-.773 0-.913.913-.913.984z"/></g><g><path fill="#fff" d="M29.728 17.371l.28-1.545s-.702.351-1.194.351c-.984 0-1.405-.772-1.405-1.616 0-1.686.844-2.6 1.826-2.6.704 0 1.266.423 1.266.423l.21-1.476s-.843-.351-1.615-.351c-1.616 0-3.233 1.405-3.233 4.075 0 1.756.844 2.95 2.53 2.95.562 0 1.335-.21 1.335-.21z"/></g><g><path fill="#fff" d="M12.023 13.578l-.562 3.864h-1.265l.07-.562c-.07 0-.492.632-1.474.632-.493 0-1.336-.28-1.336-1.545 0-1.616 1.336-2.108 2.53-2.108h.632s.07-.07.07-.351c0-.422-.421-.492-.914-.492-.913 0-1.545.28-1.545.28l.21-1.193s.703-.282 1.687-.282c.492 0 1.897.07 1.897 1.757zm-1.897 1.335c-1.054 0-1.265.492-1.265.843 0 .21.141.562.563.562.843 0 .984-1.124.984-1.335 0 0-.071 0-.282-.07z"/></g><g><path fill="#fff" d="M13.358 17.512c.352 0 2.107.07 2.107-1.826 0-1.757-1.686-1.406-1.686-2.108 0-.351.281-.492.773-.492.211 0 .984.07.984.07l.211-1.264s-.493-.14-1.335-.14c-1.054 0-2.108.42-2.108 1.826 0 1.616 1.756 1.475 1.756 2.108 0 .421-.491.491-.843.491-.632 0-1.264-.21-1.264-.21l-.211 1.264c.07.14.421.281 1.616.281z"/></g><g><path fill="#fff" d="M42.866 10.767l-1.054 6.745h-1.405l.07-.492s-.492.562-1.335.562c-1.194 0-1.757-1.194-1.757-2.318 0-1.827 1.125-3.372 2.39-3.372.773 0 1.334.702 1.334.702l.281-1.897zm-2.88 2.46c-.633 0-1.125.702-1.125 1.826 0 .703.281 1.124.773 1.124.773 0 1.124-.983 1.124-1.756 0-.843-.281-1.194-.773-1.194z"/></g><g><path fill="#fff" d="M2.468 17.442l.843-5.058.141 5.058h.983l1.827-5.058-.772 5.058h1.475l1.123-6.745H5.77l-1.405 4.146-.07-4.146H2.258l-1.125 6.745z"/></g><g><path fill="#fff" d="M24.247 17.442c.422-2.319.492-4.215 1.476-3.864.14-.913.351-1.264.492-1.616h-.282c-.632 0-1.123.843-1.123.843l.14-.773h-1.335l-.914 5.48h1.546z"/></g><g><path fill="#fff" d="M34.856 13.578l-.562 3.864H33.03l.07-.562c-.07 0-.492.632-1.475.632-.492 0-1.336-.28-1.336-1.545 0-1.616 1.336-2.108 2.53-2.108h.632s.07-.07.07-.351c0-.422-.421-.492-.913-.492-.914 0-1.546.28-1.546.28l.21-1.193s.704-.282 1.687-.282c.492 0 1.967.07 1.897 1.757zm-1.826 1.335c-1.054 0-1.265.492-1.265.843 0 .21.14.562.562.562.844 0 .983-1.124.983-1.335-.07 0-.07 0-.28-.07z"/></g><g><path fill="#fff" d="M36.051 17.442c.422-2.319.491-4.215 1.475-3.864.14-.913.35-1.264.492-1.616h-.281c-.632 0-1.125.843-1.125.843l.141-.773h-1.335l-.913 5.48h1.546z"/></g></g><g><g><path fill="#dce5e5" d="M15.676 16.388c0 .843.492 1.194 1.125 1.194.491 0 .913-.14 1.053-.21l.211-1.195c-.07 0-.21.07-.351.07-.492 0-.563-.28-.492-.42l.422-2.46h.773l.21-1.335h-.703l.141-.843"/></g><g><path fill="#dce5e5" d="M20.876 11.962c1.545 0 2.037 1.124 2.037 2.037 0 .352-.212 1.265-.212 1.265h-2.88s-.28 1.124 1.265 1.124c.703 0 1.476-.351 1.476-.351l-.282 1.334s-.422.211-1.475.211c-1.124 0-1.756-.491-1.756-2.459 0-1.756.35-3.302 1.827-3.161zm-.984 2.108h1.827c0-.07-.141-.984-.914-.984s-.913.913-.913.984z"/></g><g><path fill="#dce5e5" d="M29.728 17.371l.28-1.545s-.702.351-1.194.351c-.984 0-1.405-.772-1.405-1.616 0-1.686.844-2.6 1.826-2.6.704 0 1.266.423 1.266.423l.21-1.476s-.843-.351-1.615-.351c-1.616 0-2.53 1.405-2.53 4.075 0 1.756.14 2.95 1.826 2.95.563 0 1.336-.21 1.336-.21z"/></g><g><path fill="#dce5e5" d="M10.056 11.962c.562 0 1.967.07 1.967 1.686l-.562 3.864h-1.265l.07-.562c-.07 0-.492.632-1.474.632-.493 0-1.336-.28-1.336-1.545 0-1.616 1.336-2.108 2.53-2.108h.632s.07-.07.07-.351c0-.421-.421-.492-.914-.492-.913 0-1.545.281-1.545.281m1.897 1.546c-1.054 0-1.265.492-1.265.843 0 .21.141.562.563.562.843 0 1.686-1.124 1.686-1.335 0 0-.773 0-.984-.07z"/></g><g><path fill="#dce5e5" d="M11.812 17.371s.421.141 1.616.141c.351 0 2.108.07 2.108-1.826 0-1.757-1.687-1.406-1.687-2.108 0-.351.282-.492.773-.492.211 0 .984.07.984.07l.21-1.264s-.49-.14-1.335-.14c-1.053 0-1.404.42-1.404 1.826 0 1.616 1.054 1.475 1.054 2.108 0 .421-.493.491-.843.491"/></g><g><path fill="#dce5e5" d="M42.866 10.767l-1.054 6.745h-1.405l.07-.492s-.492.562-1.335.562c-1.194 0-1.053-1.194-1.053-2.318 0-1.827.421-3.372 1.685-3.372.774 0 1.335.702 1.335.702m-1.124.633c-.632 0-1.124.702-1.124 1.826 0 .703.281 1.124.773 1.124.773 0 1.405-.983 1.405-1.756 0-.843-.562-1.194-1.054-1.194z"/></g><g><path fill="#dce5e5" d="M2.468 17.442l.843-5.058.141 5.058h.983l1.827-5.058-.772 5.058h1.475l1.123-6.745H6.333l-1.968 4.146-.07-4.146h-.773l-2.39 6.745z"/></g><g><path fill="#dce5e5" d="M22.772 17.442h1.475c.422-2.319.492-4.215 1.476-3.864.14-.913.351-1.264.492-1.616h-.282c-.632 0-1.123.843-1.123.843l.14-.773"/></g><g><path fill="#dce5e5" d="M32.889 11.962c.562 0 1.967.07 1.967 1.686l-.562 3.864H33.03l.07-.562c-.07 0-.492.632-1.475.632-.492 0-1.336-.28-1.336-1.545 0-1.616 1.336-2.108 2.53-2.108h.632s.07-.07.07-.351c0-.421-.421-.492-.913-.492-.914 0-1.546.281-1.546.281m1.897 1.546c-1.054 0-1.265.492-1.265.843 0 .21.141.562.563.562.843 0 1.686-1.124 1.686-1.335 0 0-.703 0-.984-.07z"/></g><g><path fill="#dce5e5" d="M34.575 17.442h1.476c.422-2.319.491-4.215 1.475-3.864.14-.913.35-1.264.492-1.616h-.281c-.632 0-1.125.843-1.125.843l.141-.773"/></g></g></g></g></g></svg>