<svg xmlns="http://www.w3.org/2000/svg" width="90" height="90" viewBox="0 0 90 90"><g><g><path fill="#004cff" d="M89.998 1.757v86.485c0 .97-.787 1.758-1.758 1.758H35.178a8.858 8.858 0 0 1-5.822-2.182l-2.09-1.823a5.281 5.281 0 0 1-5.117 4.004H5.274a5.28 5.28 0 0 1-5.273-5.273V56.074a5.279 5.279 0 0 1 5.273-5.273H22.15c1.805 0 3.401.913 4.352 2.302l7.47-7.471-8.634-32.228a1.758 1.758 0 0 1 1.243-2.153L43.24 6.786V1.76c0-.97.788-1.758 1.758-1.758L88.24 0a1.754 1.754 0 0 1 1.758 1.758zm-66.092 82.97V56.073a1.76 1.76 0 0 0-1.757-1.757h-6.68v20.249a1.758 1.758 0 0 1-3.516 0v-20.25H5.274a1.76 1.76 0 0 0-1.758 1.758v28.652a1.76 1.76 0 0 0 1.758 1.758h16.874c.97 0 1.758-.79 1.758-1.758zm13.536-39.723c.136.181.238.39.295.616l1.818 7.113h3.528l-6.852-25.372a1.763 1.763 0 0 1 .174-1.336c.233-.404.618-.7 1.068-.82a4.738 4.738 0 0 0 3.347-5.797 1.757 1.757 0 0 1 1.243-2.153l1.178-.316v-6.513l-14.055 3.766zm2.593-17.042l3.206 11.871V25.001a8.236 8.236 0 0 1-3.206 2.96zm30.92 56.062a2.463 2.463 0 0 0-2.46-2.461H55.042a1.758 1.758 0 0 1 0-3.516H74.49a2.464 2.464 0 0 0 2.461-2.461 2.463 2.463 0 0 0-2.46-2.46H55.04a1.758 1.758 0 0 1 0-3.516h23.211a2.464 2.464 0 0 0 2.46-2.461 2.464 2.464 0 0 0-2.46-2.461h-23.21a1.758 1.758 0 0 1 0-3.516H72.75a2.464 2.464 0 0 0 2.461-2.46 2.464 2.464 0 0 0-2.46-2.461l-34.56-.003a1.759 1.759 0 0 1-1.704-1.322l-1.392-5.446-7.674 7.674v24.312l4.245 3.702a5.344 5.344 0 0 0 3.512 1.316h33.317a2.463 2.463 0 0 0 2.46-2.46zm15.527-80.51l-39.725.003v49.217h3.434V17.742c0-.97.787-1.758 1.757-1.758a4.738 4.738 0 0 0 4.733-4.733c0-.97.787-1.757 1.758-1.757H74.8c.971 0 1.759.787 1.759 1.757a4.738 4.738 0 0 0 4.733 4.733c.97 0 1.758.788 1.758 1.758v7.034a1.758 1.758 0 0 1-3.516 0v-5.465a8.275 8.275 0 0 1-6.303-6.302H60.008a8.275 8.275 0 0 1-6.302 6.302v33.423h9.61c-3.002-1.286-5.109-4.268-5.109-7.735 0-4.638 3.774-8.412 8.412-8.412 4.64 0 8.412 3.774 8.412 8.412 0 3.467-2.106 6.449-5.107 7.735h2.826a5.983 5.983 0 0 1 5.976 5.977c0 .877-.191 1.71-.533 2.46h.058c.44 0 .869.05 1.282.14V41.31a1.758 1.758 0 0 1 3.516 0v22.279a5.947 5.947 0 0 1 1.179 3.56 5.985 5.985 0 0 1-4.395 5.762c.405.806.634 1.714.634 2.675a5.983 5.983 0 0 1-5.977 5.977h-.552c.342.75.533 1.584.533 2.46 0 .878-.191 1.71-.533 2.462h12.544zM71.517 45c0-2.7-2.197-4.896-4.897-4.896a4.902 4.902 0 0 0-4.897 4.896c0 2.7 2.196 4.898 4.897 4.898 2.7 0 4.897-2.198 4.897-4.898z"/></g></g></svg>