<svg xmlns="http://www.w3.org/2000/svg" width="44" height="14" viewBox="0 0 44 14"><g><g><g><path fill="#3c58bf" d="M16.098 13.358L18.346.712h3.513l-2.178 12.646z"/></g><g><path fill="#293688" d="M16.098 13.358L18.978.712h2.881l-2.178 12.646z"/></g><g><path fill="#3c58bf" d="M32.397.852C31.695.572 30.57.29 29.166.29c-3.514 0-6.043 1.757-6.043 4.286 0 1.897 1.757 2.88 3.161 3.513 1.406.632 1.827 1.054 1.827 1.616 0 .843-1.123 1.264-2.107 1.264-1.405 0-2.178-.21-3.372-.703l-.492-.21-.492 2.88c.843.352 2.388.703 4.004.703 3.725 0 6.184-1.757 6.184-4.426 0-1.476-.914-2.6-3.022-3.513-1.264-.633-2.037-.984-2.037-1.616 0-.562.632-1.124 2.037-1.124 1.195 0 2.038.21 2.67.492l.352.14.561-2.74z"/></g><g><path fill="#293688" d="M32.397.852C31.695.572 30.57.29 29.166.29c-3.514 0-5.41 1.757-5.41 4.286 0 1.897 1.124 2.88 2.528 3.513 1.406.632 1.827 1.054 1.827 1.616 0 .843-1.123 1.264-2.107 1.264-1.405 0-2.178-.21-3.372-.703l-.492-.21-.492 2.88c.843.352 2.388.703 4.004.703 3.725 0 6.184-1.757 6.184-4.426 0-1.476-.914-2.6-3.022-3.513-1.264-.633-2.037-.984-2.037-1.616 0-.562.632-1.124 2.037-1.124 1.195 0 2.038.21 2.67.492l.352.14.561-2.74z"/></g><g><path fill="#3c58bf" d="M41.18.712l2.95 12.646h-3.372l-.422-2.108H35.84l-.702 2.108h-3.795l5.27-11.733c.351-.843.984-.913 1.827-.913zm-4.356 8.5h2.95c-.14-.702-.843-3.863-.843-3.863l-.21-1.195c-.211.492-.492 1.265-.492 1.265s-1.195 3.09-1.405 3.724z"/></g><g><path fill="#293688" d="M41.18.712l2.95 12.646h-3.372l-.422-2.108H35.84l-.702 2.108h-3.795l6.113-11.733c.351-.843.984-.913 1.827-.913zm-4.356 8.5h2.95c-.14-.702-.843-3.863-.843-3.863l-.21-1.195c-.211.492-.492 1.265-.492 1.265s-1.125 3.02-1.405 3.724z"/></g><g><path fill="#3c58bf" d="M9.634 9.564l-.35-1.827c-.634-2.107-2.67-4.426-4.919-5.55l3.162 11.24h3.793L17.01.783h-3.792z"/></g><g><path fill="#293688" d="M9.634 9.564l-.35-1.827c-.634-2.107-2.67-4.426-4.919-5.55l3.162 11.24h3.793L17.01.783h-3.09z"/></g><g><path fill="#ffbc00" d="M-.131.712l.632.14C4.998 1.906 8.09 4.576 9.284 7.737L8.018 1.766C7.808.922 7.175.712 6.402.712z"/></g><g><path fill="#f7981d" d="M-.131.712c4.496 1.054 8.22 3.793 9.415 6.955L8.088 2.678a1.716 1.716 0 0 0-1.687-1.334z"/></g><g><path fill="#ed7c00" d="M-.131.712c4.496 1.054 8.22 3.793 9.415 6.955l-.844-2.74c-.211-.843-.492-1.686-1.476-2.037z"/></g><g><g><path fill="#051244" d="M13.147 9.143l-2.388-2.39-1.125 2.67-.28-1.756c-.633-2.108-2.67-4.426-4.919-5.55l3.161 11.24h3.795z"/></g><g><path fill="#051244" d="M19.68 13.358l-3.02-3.092-.562 3.092z"/></g><g><path fill="#051244" d="M27.76 9.002c.281.28.422.492.351.773 0 .843-1.123 1.264-2.107 1.264-1.405 0-2.178-.21-3.372-.702l-.492-.21-.492 2.88c.843.35 2.388.702 4.004.702 2.249 0 4.075-.632 5.129-1.756z"/></g><g><path fill="#051244" d="M31.836 13.358h3.302l.702-2.108h4.496l.422 2.108h3.372l-1.194-5.129-4.216-4.075.211 1.124s.703 3.162.843 3.865h-2.95c.28-.703 1.405-3.724 1.405-3.724s.28-.773.491-1.265"/></g></g></g></g></svg>